# xmcd
# 
# Track frame offsets:
#     150
#     15255
#     31269
#     45633
#     60635
#     76643
#     90904
#     103215
#     116916
#     134751
#     154461
# 
# Disc length: 2877
# 
# Revision: 2
# Processed by: cddbd v1.5.2PL0 Copyright (c) Steve Scherf et al.
# Submitted via: fre:ac v1.0.27
# 
DISCID=850b3b0b
DTITLE=Caro Kiste Kontrabass - Fragwürdige Poesie
DYEAR=2017
DGENRE=Deutsch
TTITLE0=Unentschieden
TTITLE1=Bringst Du mir was mit?
TTITLE2=Nach und nach nicht mehr
TTITLE3=Das Lied von der Konsequenz
TTITLE4=Laß uns arme Penner sein
TTITLE5=Weit weg von den Vergleichstabellen
TTITLE6=Muß alles neu
TTITLE7=Dahin tanzen
TTITLE8=Nimm den Regen mit
TTITLE9=Fragwürdige Poesie
TTITLE10=Wir hier
EXTD=
EXTT0=
EXTT1=
EXTT2=
EXTT3=
EXTT4=
EXTT5=
EXTT6=
EXTT7=
EXTT8=
EXTT9=
EXTT10=
PLAYORDER=
